<?xml version="1.0" encoding="utf-8"?>
<!-- Generator: Adobe Illustrator 19.1.0, SVG Export Plug-In . SVG Version: 6.00 Build 0)  -->
<svg version="1.1" id="Layer_1" xmlns="http://www.w3.org/2000/svg" xmlns:xlink="http://www.w3.org/1999/xlink" x="0px" y="0px"
	 viewBox="-178 364.6 79.4 64.4" style="enable-background:new -178 364.6 79.4 64.4;" xml:space="preserve">
<style type="text/css">
	.st0{fill:#00A2B9;}
	.st1{fill:#FFFFFF;}
</style>
<g>
	<path class="st0" d="M-119.5,387.9l-21.5-18.8c-4.6-4-11.5-3.5-15.5,1l-18.8,21.5c-4,4.6-3.5,11.5,1,15.5l21.5,18.8
		c3.4,3,8.1,3.5,11.9,1.7l-8.3-7.3c0,0,0,0-0.1-0.1l-19.8-17.3c-2.3-2-2.5-5.5-0.5-7.8l17.4-19.8c2-2.3,5.5-2.5,7.7-0.5l19.8,17.4
		c2.3,2,2.5,5.5,0.5,7.7l-3.8,4.4l5,4.3l4.6-5.2C-114.5,398.8-114.9,391.9-119.5,387.9"/>
	<path class="st1" d="M-102.3,388.1l-21.5-18.8c-3.4-3-8.1-3.5-11.9-1.7l8.3,7.3c0,0,0,0,0.1,0l19.8,17.4c2.3,2,2.5,5.5,0.5,7.7
		l-17.3,19.9c-2,2.3-5.5,2.5-7.7,0.5l-19.9-17.4c-2.3-2-2.5-5.5-0.5-7.7l3.9-4.4l-5-4.3l-4.6,5.2c-4,4.6-3.5,11.5,1,15.5l21.5,18.8
		c4.6,4,11.5,3.5,15.5-1l18.8-21.5C-97.3,399-97.7,392.1-102.3,388.1"/>
</g>
</svg>
